<?xml version="1.0" encoding="utf-8"?><svg viewBox="0 0 30 30" xmlns="http://www.w3.org/2000/svg" xmlns:xlink="http://www.w3.org/1999/xlink"><style>:root>svg{display:none}:root>svg:target{display:block}</style><svg viewBox="0 0 16 24" id="arrow-down" xmlns="http://www.w3.org/2000/svg"><path d="m16 16-1.41-1.41L9 20.17V0H7v20.17l-5.58-5.59L0 16l8 8 8-8Z"/></svg><svg viewBox="0 0 25 17" id="arrow_downward" xmlns="http://www.w3.org/2000/svg"><path d="m16.512.141-1.41 1.41 5.58 5.59H.512v2h20.17l-5.59 5.58 1.42 1.42 8-8-8-8Z"/></svg><svg viewBox="0 0 20 20" id="cart" xmlns="http://www.w3.org/2000/svg"><path d="m15.564 16.34-4.762-4.764a5 5 0 1 1 1.179-1.18l4.762 4.764-1.178 1.178-.001.001ZM7.904 4.166a3.333 3.333 0 1 0 2.43 1.053l.505.5-.568-.567-.01-.01a3.31 3.31 0 0 0-2.357-.976Z"/></svg><svg viewBox="0 0 30 30" id="chevron-left" xmlns="http://www.w3.org/2000/svg"><path d="M19.419 4.394 8.812 15 19.42 25.606l1.768-1.767L12.348 15l8.84-8.839-1.768-1.767Z"/></svg><svg viewBox="0 0 30 30" id="chevron-right" xmlns="http://www.w3.org/2000/svg"><path d="M10.581 25.606 21.188 15 10.58 4.394 8.813 6.16 17.652 15l-8.84 8.839 1.768 1.767Z"/></svg><svg viewBox="0 0 14 28" id="facebook" xmlns="http://www.w3.org/2000/svg"><path d="M11.432 4.857h2.34V.554c-.404-.058-1.792-.19-3.409-.19-3.372 0-5.683 2.24-5.683 6.358v3.79H.958v4.81H4.68v12.103h4.564V15.323h3.57l.568-4.81h-4.14V7.199c.002-1.39.356-2.342 2.19-2.342Z"/></svg><svg viewBox="0 0 29 30" id="instagram" xmlns="http://www.w3.org/2000/svg"><path fill-rule="evenodd" clip-rule="evenodd" d="M9.4 0h10.653c4.902 0 8.877 4.198 8.877 9.375v11.25c0 5.177-3.975 9.375-8.877 9.375H9.4C4.5 30 .523 25.802.523 20.625V9.375C.523 4.198 4.5 0 9.4 0Zm10.653 27.188c3.426 0 6.213-2.944 6.213-6.563V9.375c0-3.619-2.787-6.563-6.213-6.563H9.4c-3.426 0-6.214 2.944-6.214 6.563v11.25c0 3.619 2.788 6.563 6.214 6.563h10.653Z"/><path fill-rule="evenodd" clip-rule="evenodd" d="M7.625 15c0-4.142 3.18-7.5 7.101-7.5 3.922 0 7.102 3.358 7.102 7.5 0 4.142-3.18 7.5-7.101 7.5-3.922 0-7.102-3.358-7.102-7.5Zm2.663 0c0 2.584 1.992 4.688 4.438 4.688 2.447 0 4.439-2.104 4.439-4.688 0-2.586-1.992-4.688-4.439-4.688-2.446 0-4.438 2.102-4.438 4.688Z"/><ellipse cx="22.36" cy="6.937" rx=".946" ry=".999"/></svg><svg viewBox="0 0 28 28" id="keyboard-arrow-right" xmlns="http://www.w3.org/2000/svg"><path d="M10.172 19.283 15.455 14l-5.283-5.283 1.63-1.63L18.717 14l-6.913 6.914-1.63-1.63Z"/></svg><svg viewBox="0 0 29 26" id="twitter" xmlns="http://www.w3.org/2000/svg"><path d="M28.875 3.613c-1.056.49-2.182.813-3.355.97a6.068 6.068 0 0 0 2.561-3.398 11.27 11.27 0 0 1-3.692 1.488C23.319 1.471 21.797.727 20.135.727c-3.224 0-5.82 2.764-5.82 6.152 0 .487.04.956.135 1.402-4.842-.249-9.126-2.7-12.003-6.433a6.46 6.46 0 0 0-.798 3.109c0 2.13 1.039 4.018 2.587 5.111a5.518 5.518 0 0 1-2.631-.757v.067c0 2.99 2.019 5.472 4.666 6.043a5.52 5.52 0 0 1-1.527.203c-.373 0-.75-.023-1.103-.105.755 2.435 2.896 4.226 5.442 4.284-1.981 1.637-4.497 2.623-7.22 2.623-.478 0-.936-.022-1.394-.084a15.769 15.769 0 0 0 8.934 2.76c10.716 0 16.575-9.375 16.575-17.501 0-.272-.01-.535-.022-.795 1.156-.866 2.127-1.948 2.919-3.193Z"/></svg></svg>